<svg xmlns="http://www.w3.org/2000/svg" xmlns:xlink="http://www.w3.org/1999/xlink" version="1.1" x="0px" y="0px" viewBox="0 0 284 202.7" enable-background="new 0 0 284 202.7" xml:space="preserve"><style>.style0{fill:	#4F4C4D;}</style><g><g><circle cx="106.9" cy="146.2" r="11.9" class="style0"/><path d="M204.3 153.8l-8.7-26v-6.5h-128v56.4h-4.3v9.8h27.4c0-9 7.3-16.3 16.3-16.3c9 0 16.3 7.3 16.3 16.3h50.7 c0-9 7.3-16.3 16.3-16.3c6.3 0 11.8 3.6 14.5 8.9c1 1.9 1.6 4 1.7 6.2c0 0.4 0.1 0.8 0.1 1.2h13v-27.1L204.3 153.8z M87.6 140.7 c0 1.2-1 2.2-2.2 2.2h-1.4v17.4c0 1.2-1 2.2-2.2 2.2c-1.2 0-2.2-1-2.2-2.2v-17.4h-1.4c-1.2 0-2.2-1-2.2-2.2v-10 c0-0.4 0.4-0.8 0.8-0.8c0.4 0 0.8 0.4 0.8 0.8v7.9h1.6v-7.9c0-0.4 0.4-0.8 0.8-0.8s0.8 0.4 0.8 0.8v7.9h1.6v-7.9 c0-0.4 0.4-0.8 0.8-0.8c0.4 0 0.8 0.4 0.8 0.8v7.9H86v-7.9c0-0.4 0.4-0.8 0.8-0.8c0.4 0 0.8 0.4 0.8 0.8L87.6 140.7L87.6 140.7z M106.9 162.4c-9 0-16.3-7.3-16.3-16.3c0-9 7.3-16.3 16.3-16.3c9 0 16.3 7.3 16.3 16.3C123.2 155.2 115.9 162.4 106.9 162.4z M134 160.3c0 1.2-1 2.2-2.2 2.2c-1.2 0-2.2-1-2.2-2.2v-10.9h-2.2v-16.3c0-1.8 1.5-3.3 3.3-3.3c1.8 0 3.3 1.5 3.3 3.3V160.3z M176 153.8v-19.5h15.2l6.5 19.5H176z" class="style0"/><path d="M106.9 175.5c-6.6 0-11.9 5.3-11.9 11.9c0 6.6 5.3 11.9 11.9 11.9c6.6 0 11.9-5.3 11.9-11.9 C118.8 180.8 113.5 175.5 106.9 175.5z M106.9 193.9c-3.6 0-6.5-2.9-6.5-6.5c0-3.6 2.9-6.5 6.5-6.5c3.6 0 6.5 2.9 6.5 6.5 C113.4 191 110.5 193.9 106.9 193.9z" class="style0"/><path d="M190.2 175.5c-6.6 0-11.9 5.3-11.9 11.9c0 6.6 5.3 11.9 11.9 11.9c6.6 0 11.9-5.3 11.9-11.9 C202.1 180.8 196.7 175.5 190.2 175.5z M190.2 193.9c-3.6 0-6.5-2.9-6.5-6.5c0-3.6 2.9-6.5 6.5-6.5c3.6 0 6.5 2.9 6.5 6.5 C196.7 191 193.7 193.9 190.2 193.9z" class="style0"/></g><g><path d="M99.2 24.6c0 0.8-0.5 1.3-1.3 1.3H78.1v13.7h15c0.8 0 1.3 0.5 1.3 1.3v8c0 0.9-0.5 1.3-1.3 1.3h-15v19.9 c0 0.8-0.5 1.3-1.3 1.3h-8.3c-0.9 0-1.3-0.5-1.3-1.3V16.6c0-0.8 0.4-1.3 1.3-1.3h29.4c0.8 0 1.3 0.5 1.3 1.3V24.6z" class="style0"/><path d="M104.8 26.9c0-7.5 4-11.5 11.5-11.5h9c7.5 0 11.5 4 11.5 11.5v33c0 7.5-4 11.5-11.5 11.5h-9 c-7.5 0-11.5-4-11.5-11.5V26.9z M123.5 61c2.1 0 3.2-1 3.2-3.2v-29c0-2.1-1.1-3.2-3.2-3.2h-5.1c-2.1 0-3.2 1.1-3.2 3.2v29 c0 2.2 1.1 3.2 3.2 3.2H123.5z" class="style0"/><path d="M144.8 26.9c0-7.5 4-11.5 11.5-11.5h9c7.5 0 11.5 4 11.5 11.5v33c0 7.5-4 11.5-11.5 11.5h-9 c-7.5 0-11.5-4-11.5-11.5V26.9z M163.5 61c2.1 0 3.2-1 3.2-3.2v-29c0-2.1-1.1-3.2-3.2-3.2h-5.1c-2.1 0-3.2 1.1-3.2 3.2v29 c0 2.2 1.1 3.2 3.2 3.2H163.5z" class="style0"/><path d="M184.8 16.6c0-0.8 0.4-1.3 1.3-1.3h19.2c7.5 0 11.5 4.1 11.5 11.6v32.9c0 7.5-4 11.5-11.5 11.5h-19.2 c-0.9 0-1.3-0.4-1.3-1.3V16.6z M203 60.8c2.1 0 3.2-1 3.2-3.2V29.2c0-2.2-1.1-3.3-3.2-3.3h-7.4v34.9H203z" class="style0"/></g></g></svg>