<svg xmlns="http://www.w3.org/2000/svg" xmlns:xlink="http://www.w3.org/1999/xlink" version="1.1" x="0px" y="0px" viewBox="-88.7 -36.3 342.1 238" enable-background="new -88.7 -36.3 342.1 238" xml:space="preserve"><style>.style0{opacity:	0.85;}.style1{fill:	#FFFFFF;}.style2{fill:	#999999;}.style3{fill:	#FF8F7D;}</style><g><g class="style0"><g><path d="M-65.7 162.3c0 0.5-0.3 0.7-0.7 0.7h-11.2v9h8.5c0.5 0 0.7 0.3 0.7 0.7v4.5c0 0.5-0.3 0.7-0.7 0.7h-8.5 v14.4c0 0.5-0.3 0.7-0.7 0.7H-83c-0.5 0-0.7-0.3-0.7-0.7v-34.6c0-0.5 0.2-0.7 0.7-0.7h16.6c0.4 0 0.7 0.3 0.7 0.7V162.3z" class="style1"/><path d="M-63 168c0-4.2 2.2-6.5 6.5-6.5h5c4.2 0 6.5 2.2 6.5 6.5v18.5c0 4.2-2.2 6.5-6.5 6.5h-5 c-4.2 0-6.5-2.2-6.5-6.5V168z M-52.5 187.3c1.2 0 1.8-0.6 1.8-1.8v-16.3c0-1.2-0.6-1.8-1.8-1.8h-2.9c-1.2 0-1.8 0.6-1.8 1.8v16.3 c0 1.2 0.6 1.8 1.8 1.8H-52.5z" class="style1"/><path d="M-22.5 177.1c0 2.6-0.9 4.5-2.5 5.5l2.3 9.7c0.1 0.5-0.1 0.8-0.6 0.8h-4.4c-0.4 0-0.7-0.2-0.8-0.6 l-2.2-8.9h-4v8.8c0 0.5-0.3 0.7-0.7 0.7h-4.4c-0.4 0-0.7-0.3-0.7-0.7v-30.1c0-0.5 0.3-0.7 0.7-0.7H-29c4.2 0 6.5 2.2 6.5 6.5 V177.1z M-30.1 177.8c1.2 0 1.8-0.6 1.8-1.8v-6.8c0-1.2-0.6-1.8-1.8-1.8h-4.5v10.4H-30.1z" class="style1"/><path d="M9.6 157.1c0.5 0 0.7 0.3 0.7 0.7v4.5c0 0.5-0.2 0.7-0.7 0.7H4.4v29.3c0 0.5-0.2 0.7-0.7 0.7H-1 c-0.5 0-0.7-0.2-0.7-0.7V163h-5.2c-0.4 0-0.7-0.3-0.7-0.7v-4.5c0-0.5 0.3-0.7 0.7-0.7H9.6z" class="style1"/><path d="M25.8 162.3c0-0.5 0.3-0.7 0.7-0.7h4.6c0.5 0 0.8 0.3 0.8 0.7v30.1c0 0.5-0.2 0.7-0.8 0.7h-4.6 c-0.5 0-0.7-0.3-0.7-0.7v-12h-5.8v12c0 0.5-0.3 0.7-0.7 0.7h-4.6c-0.5 0-0.8-0.3-0.8-0.7v-30.1c0-0.5 0.2-0.7 0.8-0.7h4.6 c0.4 0 0.7 0.3 0.7 0.7v12.1h5.8V162.3z" class="style1"/><path d="M54.4 166.8c0 0.5-0.2 0.8-0.7 0.8H42.6v6.9H51c0.5 0 0.7 0.3 0.7 0.8v4.5c0 0.5-0.3 0.8-0.7 0.8h-8.5 v6.7h11.1c0.5 0 0.7 0.2 0.7 0.7v4.5c0 0.5-0.2 0.7-0.7 0.7H37.1c-0.4 0-0.7-0.3-0.7-0.7v-30.1c0-0.5 0.3-0.7 0.7-0.7h16.6 c0.5 0 0.7 0.3 0.7 0.7V166.8z" class="style1"/><path d="M82.1 157.8c0-0.5 0.3-0.7 0.7-0.7h4.6c0.5 0 0.8 0.3 0.8 0.7v34.6c0 0.5-0.2 0.7-0.8 0.7h-4.6 c-0.5 0-0.7-0.3-0.7-0.7V178h-5.8v14.3c0 0.5-0.3 0.7-0.7 0.7h-4.6c-0.5 0-0.8-0.3-0.8-0.7v-34.6c0-0.5 0.2-0.7 0.8-0.7h4.6 c0.4 0 0.7 0.3 0.7 0.7v14.3h5.8V157.8z" class="style1"/><path d="M92.7 168c0-4.2 2.2-6.5 6.5-6.5h5c4.2 0 6.5 2.2 6.5 6.5v18.5c0 4.2-2.2 6.5-6.5 6.5h-5 c-4.2 0-6.5-2.2-6.5-6.5V168z M103.2 187.3c1.2 0 1.8-0.6 1.8-1.8v-16.3c0-1.2-0.6-1.8-1.8-1.8h-2.9c-1.2 0-1.8 0.6-1.8 1.8v16.3 c0 1.2 0.6 1.8 1.8 1.8H103.2z" class="style1"/><path d="M139.9 161.6c0.6 0 0.9 0.3 0.9 0.9v29.7c0 0.6-0.3 0.9-0.9 0.9h-4.2c-0.6 0-0.9-0.3-0.9-0.9v-17.7h-0.3 l-4.2 17.8c-0.1 0.5-0.4 0.8-1 0.8h-2.7c-0.5 0-0.9-0.3-1-0.8l-4.2-17.8h-0.3v17.7c0 0.6-0.3 0.9-0.9 0.9h-4.1 c-0.6 0-0.9-0.3-0.9-0.9v-29.7c0-0.6 0.3-0.9 0.9-0.9h5.9c0.5 0 0.9 0.3 1 0.8l5 20.1l5-20.1c0.1-0.5 0.5-0.8 1-0.8H139.9z" class="style1"/><path d="M163.3 166.8c0 0.5-0.2 0.8-0.7 0.8h-11.1v6.9h8.5c0.5 0 0.7 0.3 0.7 0.8v4.5c0 0.5-0.3 0.8-0.7 0.8h-8.5 v6.7h11.1c0.5 0 0.7 0.2 0.7 0.7v4.5c0 0.5-0.2 0.7-0.7 0.7H146c-0.4 0-0.7-0.3-0.7-0.7v-30.1c0-0.5 0.3-0.7 0.7-0.7h16.6 c0.5 0 0.7 0.3 0.7 0.7V166.8z" class="style1"/><path d="M173.9 187.1h8.9c0.5 0 0.7 0.3 0.7 0.7v4.5c0 0.5-0.2 0.7-0.7 0.7h-14.3c-0.4 0-0.7-0.2-0.7-0.7v-30.1 c0-0.5 0.3-0.7 0.7-0.7h4.7c0.5 0 0.7 0.3 0.7 0.7V187.1z" class="style1"/><path d="M205.5 166.8c0 0.5-0.2 0.8-0.7 0.8h-11.1v6.9h8.5c0.5 0 0.7 0.3 0.7 0.8v4.5c0 0.5-0.3 0.8-0.7 0.8h-8.5 v6.7h11.1c0.5 0 0.7 0.2 0.7 0.7v4.5c0 0.5-0.2 0.7-0.7 0.7h-16.6c-0.4 0-0.7-0.3-0.7-0.7v-30.1c0-0.5 0.3-0.7 0.7-0.7h16.6 c0.5 0 0.7 0.3 0.7 0.7V166.8z" class="style1"/><path d="M220.2 161.6c4.2 0 6.5 2.2 6.5 6.5v3c0 0.5-0.2 0.7-0.7 0.7h-4.5c-0.5 0-0.7-0.3-0.7-0.7v-1.9 c0-1.2-0.6-1.8-1.8-1.8h-2.5c-1.1 0-1.8 0.6-1.8 1.8v3.8l10.9 3.5c0.8 0.3 1.2 0.8 1.2 1.7v8.5c0 4.2-2.2 6.5-6.5 6.5h-5 c-4.2 0-6.5-2.2-6.5-6.5v-2.9c0-0.5 0.3-0.7 0.7-0.7h4.5c0.5 0 0.7 0.2 0.7 0.7v1.9c0 1.2 0.7 1.8 1.8 1.8h2.4 c1.2 0 1.8-0.6 1.8-1.8V181l-10.8-3.5c-0.8-0.3-1.2-0.8-1.2-1.7V168c0-4.2 2.3-6.5 6.5-6.5H220.2z" class="style1"/><path d="M241.8 161.6c4.2 0 6.5 2.2 6.5 6.5v3c0 0.5-0.2 0.7-0.7 0.7H243c-0.5 0-0.7-0.3-0.7-0.7v-1.9 c0-1.2-0.6-1.8-1.8-1.8H238c-1.1 0-1.8 0.6-1.8 1.8v3.8l10.9 3.5c0.8 0.3 1.2 0.8 1.2 1.7v8.5c0 4.2-2.2 6.5-6.5 6.5h-5 c-4.2 0-6.5-2.2-6.5-6.5v-2.9c0-0.5 0.3-0.7 0.7-0.7h4.5c0.5 0 0.7 0.2 0.7 0.7v1.9c0 1.2 0.7 1.8 1.8 1.8h2.4 c1.2 0 1.8-0.6 1.8-1.8V181l-10.8-3.5c-0.8-0.3-1.2-0.8-1.2-1.7V168c0-4.2 2.3-6.5 6.5-6.5H241.8z" class="style1"/></g></g><g><g><path d="M-2.7 112.3l83.1 23.5l83-23.8c-0.3-32.5-6.3-77.6-33.2-111.1c-17.2-21.5-37.6-31.1-50.1-31 c-17.2 0-38 16.2-49.9 31.3C3.3 34.8-2.6 79.8-2.7 112.3z" class="style1"/><g><g><path d="M80.3 140.4l-87.5-24.8l0-1.7C-7.2 80.6-1.4 33.5 26.6-1.7C44.7-24.4 66.5-34.6 80-34.7 c13.6 0 35.4 10.1 53.5 32.7c28.2 35.1 34.1 82.2 34.2 115.6l0 1.7L80.3 140.4z M-2.7 112.2l83.1 23.5l83-23.8 c-0.3-32.5-6.3-77.6-33.2-111.1c-17.2-21.5-37.6-31.1-50.1-31c-17.2 0-38 16.2-49.9 31.3C3.3 34.7-2.6 79.7-2.7 112.2z" class="style2"/></g></g><g><path d="M101.9 22.2c0 1.4-0.8 2.2-2.1 2.2l-33 0.1l0 23.6l25 0c1.3 0 2.1 0.8 2.1 2.2l0 13.8 c0 1.5-0.8 2.2-2.1 2.2l-25 0l0.1 34.4c0 1.4-0.8 2.2-2.1 2.2l-13.9 0c-1.5 0-2.1-0.8-2.1-2.2L48.6 8.5c0-1.4 0.7-2.2 2.1-2.2 l49-0.1c1.3 0 2.1 0.8 2.1 2.2L101.9 22.2z" class="style3"/><path d="M68.6 81.8c0 1.2 1 2.2 2.2 2.2l19 0c1.2 0 2.2-1 2.2-2.2l0-5.7c0-1.2-1-2.2-2.2-2.2l-19 0 c-1.2 0-2.2 1-2.2 2.2L68.6 81.8z" class="style2"/><rect x="73.9" y="91.1" transform="matrix(1 -1.740345e-03 1.740345e-03 1 -0.1687 0.1398)" width="12.8" height="11.9" class="style2"/></g><g><path d="M120.5 82.7c-0.9-0.7-2-1.3-4.1-1.9c-1.2-0.3-2.8-0.6-4.8-0.7c-1.1-0.1-2.3-0.1-3.6-0.1 c0.2 0 0.3 0 0.5 0c-0.1 0-0.2 0-0.4 0c-0.2 0-0.4 0-0.6 0c0 0 0 0 0 0c0 0 0 0 0 0c-0.2 0-0.3 0-0.5 0c-1.6 0-3 0.1-4.3 0.2 l-0.1-11.5c0-0.3 0-0.5 0-0.7c0-0.3-0.1-0.6-0.2-0.7c-0.2-0.3-0.3-0.5-0.6-0.7c-0.3-0.2-0.7-0.5-1.4-0.5c0 0 0 0 0 0l0 0l-4.4 0 c-0.6 0-1.1 0.2-1.4 0.5c-0.3 0.2-0.4 0.4-0.6 0.7c-0.1 0.2-0.2 0.5-0.2 0.8l0.1 35.5l0.8 0l7.3 0l0.6 0l0.4 0l0-12.1 c0-0.7 0.1-1.2 0.2-1.5c0.2-0.3 0.3-0.5 0.6-0.7c0.3-0.2 0.8-0.5 1.4-0.5l4.6 0c0.7 0 1.1 0.2 1.4 0.5c0.3 0.2 0.4 0.4 0.6 0.7 c0.2 0.3 0.2 0.8 0.2 1.5l0 12.1l0.4 0l0.6 0l8.3 0l0-17.8C121.4 84.5 121.6 83.5 120.5 82.7z" class="style2"/></g></g></g></g></svg>