<svg xmlns="http://www.w3.org/2000/svg" xmlns:xlink="http://www.w3.org/1999/xlink" version="1.1" x="0px" y="0px" viewBox="0 0 284 202.7" enable-background="new 0 0 284 202.7" xml:space="preserve"><style>.style0{fill:	#4F4C4D;}</style><g><path d="M142.7 108.7c0.1-2.1 0-4.3 1.7-4.1c0.8 0.1 2.3 0.3 4.1 0.6c2 0.4 1.7 11.1 1.7 11.1l7.2 2.8 c0.2-7.8-1.7-16.8-3.6-17.3c-3.2-0.9-8-2.9-12.7-1.8c-3.2 0.7-4 12.3-4 12.3l5.5 1.4C142.5 113.7 142.5 112 142.7 108.7z" class="style0"/><path d="M109.3 148c1.2 0.4 3.1 1.1 5.4 1.8c1.7-4.7 4.6-8.3 4.6-8.3s0.7-1.7 4-1c3.3 0.7 3.5 2.2 3.5 2.2 s-2.2 3.5-4.3 8.2c-0.1 0.3-0.3 0.7-0.4 1.1c5.3 1.5 10.4 2.9 11.9 3c2.9 0.3 10.2 0.6 11.6-6.4c1.4-6.9 2.7-11.1 3.9-13.8 c0.2-0.6 0.4-1.1 0.6-1.4c0.3-0.7 1.3-2.1 2.7-3.5c0 0 0 0 0 0c0 0 0 0 0 0c1.9-1.8 4.5-3.6 7.4-3.6c0.2 0 0.3 0 0.6 0.1 c-1.7-1.9-3.7-3.5-5.8-4.3c-0.5-0.2-17.7-7-22.9-6.3c-0.1 0-0.3 0-0.4 0.1c0.2 0 0.4-0.1 0.4-0.1s-11.8 0.3-19.6 8.1 c-4.1 4.1-7.7 11.4-9.9 18.4C102.4 144 104.6 146.2 109.3 148z" class="style0"/><path d="M132.4 160.3c-2.3-0.4-6.6-1.6-11.2-3c-0.7 2.8-0.1 7.5-0.1 7.5s-0.9 2.2-4.5 1.4c-3-0.7-3-2.9-3-2.9 s-0.8-4.4-0.1-8.4c-4.4-1.4-8.1-2.6-9.5-3.1c-1.6-0.6-2.8-1.5-3.7-2.5c-0.1 0.4-0.1 2-0.2 2.3c-3.1 22.1 3.3 31.6 3.8 33.6 c0.6 2.7 12.4 8.4 23.7 12.5c6.6 2.4 13.9 1.9 16.9 1.7l0.2 0c0.5-8.5 1.7-30.8 2.4-44.4C146.2 160.1 137.9 161.3 132.4 160.3z" class="style0"/><path d="M167.2 163.8c-0.1-4.7-0.2-8.6-0.3-9.3c-0.1-1.3-0.2-3.7-0.2-6.4c-0.5-5.7-1.9-11.7-3.2-14.9 c-2.1-5.3-8.2 1.4-9.9 5.5c-1.8 4.3-3.5 54.4-3.6 59.4c4.2-1.1 10.3-2.7 11.1-3.9c1.6-2.5 2.4-4.9 2.8-6.9c0.3-1.4 3.8-2.6 3.8-2.6 s-0.2-10.8-0.5-19.5l-0.1 0.2C167.1 165.5 167.2 164.9 167.2 163.8z" class="style0"/><path d="M182.8 142.1c0 0-0.9-10.7-1.1-12.8c-0.5-5-5-21.2-20.5-8.8l4.1 4.5c0 0 10.5-9.4 10.9 13 c0 1.9 0.2 4.6 1.3 20.5c1.3 17.7-5.6 17.8-5.6 17.8l0.3 7.5c0 0 2.6-0.7 5.2-1.8c3.8-1.6 7.3-8.2 7.3-17.9 C184.7 160.2 182.8 142.1 182.8 142.1z" class="style0"/><path d="M128.5 112l3.4-0.5v-2.9l0.7-2.4c0 0-3.2 1.4-4.1 2.9c-0.9 1.4-1.3 2.2-1.3 2.9 C127.2 112.7 128.5 112 128.5 112z" class="style0"/></g><g><path d="M102.9 71.3c-1 0-1.4-0.4-1.8-1.2L91 50.3L88 56v13.7c0 1-0.6 1.6-1.6 1.6h-7.7c-1 0-1.6-0.6-1.6-1.6V16.9 c0-1 0.6-1.6 1.6-1.6h7.7c1 0 1.6 0.6 1.6 1.6v20.8l12.3-21.2c0.4-0.7 1-1.2 1.8-1.2h8.4c1.2 0 1.8 0.9 1.1 1.9L98.1 41.1 l14.5 28.3c0.6 1 0.1 1.8-1.2 1.8H102.9z" class="style0"/><path d="M121.3 71.3c-0.9 0-1.3-0.5-1.3-1.3V16.6c0-0.8 0.4-1.3 1.3-1.3h8.3c0.8 0 1.3 0.5 1.3 1.3V70 c0 0.8-0.5 1.3-1.3 1.3H121.3z" class="style0"/><path d="M167.2 15.3c0.9 0 1.3 0.5 1.3 1.3v8c0 0.8-0.4 1.3-1.3 1.3h-9.3V70c0 0.9-0.4 1.3-1.3 1.3h-8.3 c-0.8 0-1.3-0.4-1.3-1.3V25.9h-9.3c-0.8 0-1.3-0.5-1.3-1.3v-8c0-0.8 0.5-1.3 1.3-1.3H167.2z" class="style0"/><path d="M195.4 15.3c7.5 0 11.5 4 11.5 11.5v5.3c0 0.8-0.4 1.3-1.3 1.3h-8.1c-0.8 0-1.3-0.5-1.3-1.3v-3.4 c0-2.1-1-3.2-3.2-3.2h-4.4c-2 0-3.2 1.1-3.2 3.2v6.8l19.4 6.2c1.4 0.5 2.1 1.4 2.1 3v15c0 7.5-4 11.5-11.5 11.5h-9 c-7.4 0-11.5-4-11.5-11.5v-5.2c0-0.9 0.5-1.3 1.3-1.3h8.1c0.9 0 1.3 0.4 1.3 1.3v3.4c0 2.2 1.2 3.2 3.2 3.2h4.3 c2.1 0 3.2-1 3.2-3.2v-8.1L177 43.6c-1.4-0.5-2.2-1.4-2.2-3V26.8c0-7.5 4.1-11.5 11.5-11.5H195.4z" class="style0"/></g></svg>