<svg xmlns="http://www.w3.org/2000/svg" xmlns:xlink="http://www.w3.org/1999/xlink" version="1.1" x="0px" y="0px" viewBox="0 0 284 202.7" enable-background="new 0 0 284 202.7" xml:space="preserve"><style>.style0{fill:	#4F4C4D;}</style><g><path d="M146.7 157.7c-0.5-0.4-1-0.7-1.7-0.9c-0.3-0.1 0-0.2-1-0.3v8.8c0 0.3 0.2 0.5 0.5 0.4 c1.5-0.2 1.7-0.6 2.4-1.2c0.9-0.7 1.4-1.9 1.4-3.6c0-0.8-0.1-1.4-0.4-1.9C147.5 158.5 147.1 158 146.7 157.7z" class="style0"/><path d="M180.5 121.2c-5.3-5.3-12.4-8.2-19.9-8.2c-6.8 0-13.3 2.4-18.4 6.8c-0.2 0.1-0.4 0.1-0.6 0 c-5.1-4.4-11.6-6.8-18.4-6.8c-7.5 0-14.5 2.9-19.9 8.2c-5.3 5.3-8.3 12.3-8.3 19.6c0 7.7 3.2 15.2 9 21.1 c12.7 12.7 32.9 32.9 36.5 36.5c0.3 0.3 0.8 0.5 1.3 0.5c0 0 0 0 0 0c0.5 0 0.9-0.2 1.3-0.5l6.9-6.9c8-8 20.7-20.7 29.6-29.6 c5.8-5.8 9.1-13.3 9.1-21.1C188.8 133.5 185.9 126.5 180.5 121.2z M154.7 165.3c-0.7 1.5-1.6 2.7-2.7 3.7c-1.1 1-2.5 1.7-4 2.2 c-1.2 0.4-1.9 0.6-3.5 0.8c-0.2 0-0.4 0.2-0.4 0.4v3.9c0 0.4-0.3 0.7-0.7 0.7h-2.8c-0.3 0-0.6-0.3-0.6-0.6v-3.9 c0-0.2-0.2-0.4-0.4-0.4c-1.7-0.1-2.6-0.4-3.9-0.8c-1.6-0.6-3-1.4-4.1-2.4c-1.1-1.1-2-2.4-2.7-3.9c-0.6-1.6-0.9-3.3-0.9-5.3 c0-0.3 0.3-0.6 0.6-0.6h6c0.2 0 0.5 0 0.6 0.1c0.2 0.2 0.3 0.3 0.3 0.6c0 2 0.4 3.5 1.2 4.5c0.6 0.8 1.2 1.3 2.8 1.5 c0.3 0 0.5-0.2 0.5-0.4v-9.5c0-0.2-0.1-0.4-0.3-0.4c-1-0.3-2.1-0.7-3.2-1.1c-1.4-0.5-2.7-1.2-3.8-2.1c-1.2-0.9-2.1-2-2.8-3.3 c-0.7-1.3-1.1-3-1.1-5c0-1.7 0.3-3.3 1-4.6c0.7-1.3 1.6-2.4 2.7-3.3c1.1-0.9 2.4-1.5 3.9-2c1-0.3 2.3-0.5 3.2-0.6 c0.2 0 0.4-0.2 0.4-0.4v-2.5c0-0.2 0.2-0.4 0.4-0.4h2.9c0.3 0 0.6 0.3 0.6 0.6v2.2c0 0.2 0.2 0.4 0.4 0.4c1.6 0.1 2.1 0.3 3.1 0.6 c1.4 0.4 2.7 1.1 3.7 1.9c1.1 0.9 1.9 2 2.6 3.3c0.7 1.5 1 3.4 0.9 5.3c0 0.3-0.3 0.5-0.6 0.5h-6.3c-0.3 0-0.6-0.3-0.6-0.6 c0-1.7-0.3-3-1.1-3.8c-0.4-0.4-1-0.8-1.7-1c-0.3-0.1-0.6 0.1-0.6 0.4v7.9c0 0.2 0.2 0.4 0.4 0.4c1.7 0.3 2.2 0.7 3.4 1.2 c1.5 0.6 2.8 1.3 4 2.2c1.2 0.9 2.1 2 2.9 3.4c0.7 1.4 1.1 3 1.1 4.9C155.7 162 155.3 163.8 154.7 165.3z" class="style0"/><path d="M136.2 143.5c0 0.6 0.1 1.2 0.4 1.6c0.3 0.5 0.6 0.9 1 1.2c0.4 0.3 1.3 0.6 1.9 0.8 c0.3 0.1 1.2 0.2 1.2 0.3v-7.8c-1 0.1-2.4 0.4-3 0.9C136.9 141 136.2 142 136.2 143.5z" class="style0"/><path d="M140 147.4c0-0.1-0.6-0.2-0.8-0.3c-0.6-0.2-1.1-0.5-1.6-0.8c-0.4-0.3-0.8-0.7-1-1.2 c-0.2-0.4-0.4-0.9-0.4-1.6c0-1.5 0.3-2.5 1.1-3c0.5-0.4 1.4-0.7 2.2-0.8c0.2 0 0.5 0.2 0.5 0.4V147.4z M146.9 164.5 c-0.7 0.6-0.9 1-2.4 1.2c-0.2 0-0.5-0.2-0.5-0.4v-8.9c1 0.1 0.7 0.1 1.1 0.3c0.6 0.2 1.2 0.6 1.7 1c0.5 0.4 0.8 0.8 1.1 1.3 c0.3 0.5 0.4 1.1 0.4 1.9C148.3 162.6 147.8 163.8 146.9 164.5z" class="style0"/></g><g><path d="M28.5 16C36 16 40 20 40 27.5v5.3c0 0.8-0.4 1.3-1.3 1.3h-8.1c-0.8 0-1.3-0.5-1.3-1.3v-3.4 c0-2.1-1-3.2-3.2-3.2h-4.4c-2 0-3.2 1.1-3.2 3.2v6.8l19.4 6.2c1.4 0.5 2.1 1.4 2.1 3v15C40 68 36 72 28.5 72h-9 C12.1 72 8 68 8 60.5v-5.2C8 54.4 8.5 54 9.3 54h8.1c0.9 0 1.3 0.4 1.3 1.3v3.4c0 2.2 1.2 3.2 3.2 3.2h4.3c2.1 0 3.2-1 3.2-3.2 v-8.1l-19.2-6.2c-1.4-0.5-2.2-1.4-2.2-3V27.5C8 20 12.1 16 19.5 16H28.5z" class="style0"/><path d="M78.4 16c0.9 0 1.6 0.7 1.6 1.6v42.9C80 68 76 72 68.5 72h-9C52 72 48 68 48 60.5V17.6 c0-0.9 0.7-1.6 1.6-1.6h7.7c0.9 0 1.6 0.7 1.6 1.6v40.6c0 2.2 1.1 3.2 3.2 3.2h4.2c2.1 0 3.2-1 3.2-3.2V17.6c0-0.9 0.7-1.6 1.6-1.6 H78.4z" class="style0"/><path d="M88 17.3c0-0.8 0.5-1.3 1.3-1.3h19.2c7.5 0 11.5 4 11.5 11.5v15.7c0 7.4-4 11.4-11.5 11.5l-10.1 0.1v16 c0 0.8-0.4 1.3-1.3 1.3L89.3 72c-0.8 0-1.3-0.5-1.3-1.3V17.3z M106.4 44.4c2.2 0 3.2-1.2 3.2-3.2V29.5c0-2.1-1-3.2-3.2-3.2l-8 0.1 v18.1L106.4 44.4z" class="style0"/><path d="M128 17.3c0-0.8 0.5-1.3 1.3-1.3h19.2c7.5 0 11.5 4 11.5 11.5v15.7c0 7.4-4 11.4-11.5 11.5l-10.1 0.1v16 c0 0.8-0.4 1.3-1.3 1.3l-7.8-0.1c-0.8 0-1.3-0.5-1.3-1.3V17.3z M146.4 44.4c2.2 0 3.2-1.2 3.2-3.2V29.5c0-2.1-1-3.2-3.2-3.2l-8 0.1 v18.1L146.4 44.4z" class="style0"/><path d="M167.2 27.5c0-7.5 4-11.5 11.5-11.5h9c7.5 0 11.5 4 11.5 11.5v33c0 7.5-4 11.5-11.5 11.5h-9 c-7.5 0-11.5-4-11.5-11.5V27.5z M185.9 61.7c2.1 0 3.2-1 3.2-3.2v-29c0-2.1-1.1-3.2-3.2-3.2h-5.1c-2.1 0-3.2 1.1-3.2 3.2v29 c0 2.2 1.1 3.2 3.2 3.2H185.9z" class="style0"/><path d="M239.2 43.6c0 4.6-1.5 7.9-4.5 9.8l4.2 17.2c0.2 1-0.2 1.4-1.1 1.4h-7.8c-0.8 0-1.2-0.4-1.4-1.1l-3.8-15.8 h-7.1v15.6c0 0.8-0.5 1.3-1.3 1.3h-7.8c-0.8 0-1.3-0.5-1.3-1.3V17.3c0-0.8 0.5-1.3 1.3-1.3h19.2c7.5 0 11.5 4 11.5 11.5V43.6z M225.6 44.8c2.1 0 3.2-1.1 3.2-3.2V29.5c0-2.1-1.1-3.2-3.2-3.2h-8v18.5H225.6z" class="style0"/><path d="M276.3 16c0.9 0 1.3 0.5 1.3 1.3v8c0 0.8-0.4 1.3-1.3 1.3H267v44.2c0 0.9-0.4 1.3-1.3 1.3h-8.3 c-0.8 0-1.3-0.4-1.3-1.3V26.6h-9.3c-0.8 0-1.3-0.5-1.3-1.3v-8c0-0.8 0.5-1.3 1.3-1.3H276.3z" class="style0"/></g></svg>